<svg width="35" height="35" viewBox="0 0 51 51" fill="none" xmlns="http://www.w3.org/2000/svg">
<path d="M37.4537 38.7083V30.5833H20.1698V20.5833H37.4537V12.4583L50.4167 25.5833L37.4537 38.7083ZM27.5772 0.583328C28.2257 0.583328 28.8678 0.712657 29.467 0.963931C30.0661 1.2152 30.6105 1.5835 31.0691 2.04779C31.5276 2.51209 31.8914 3.06328 32.1395 3.66991C32.3877 4.27654 32.5154 4.92672 32.5154 5.58333V15.5833H27.5772V5.58333H5.35494V45.5833H27.5772V35.5833H32.5154V45.5833C32.5154 46.2399 32.3877 46.8901 32.1395 47.4967C31.8914 48.1034 31.5276 48.6546 31.0691 49.1189C30.6105 49.5832 30.0661 49.9515 29.467 50.2027C28.8678 50.454 28.2257 50.5833 27.5772 50.5833H5.35494C4.70644 50.5833 4.06429 50.454 3.46515 50.2027C2.86601 49.9515 2.32162 49.5832 1.86306 49.1189C1.4045 48.6546 1.04075 48.1034 0.792575 47.4967C0.544404 46.8901 0.416672 46.2399 0.416672 45.5833V5.58333C0.416672 4.92672 0.544404 4.27654 0.792575 3.66991C1.04075 3.06328 1.4045 2.51209 1.86306 2.04779C2.32162 1.5835 2.86601 1.2152 3.46515 0.963931C4.06429 0.712657 4.70644 0.583328 5.35494 0.583328H27.5772Z" fill="#D4D4D4"/>
</svg>
