<svg width="35" height="35" viewBox="0 0 50 50" fill="none" xmlns="http://www.w3.org/2000/svg">
<path d="M45 0H5C2.25 0 0 2.10938 0 4.6875V45.3125C0 47.8906 2.25 50 5 50H45C47.75 50 50 47.8906 50 45.3125V4.6875C50 2.10938 47.75 0 45 0ZM43.3333 43.75H6.66667V6.25H43.3333V43.75ZM13.3333 28.125H36.6667V31.25H13.3333V28.125ZM13.3333 34.375H36.6667V37.5H13.3333V34.375ZM16.6667 14.0625C16.6667 12.8193 17.1934 11.627 18.1311 10.7479C19.0688 9.86886 20.3406 9.375 21.6667 9.375C22.9927 9.375 24.2645 9.86886 25.2022 10.7479C26.1399 11.627 26.6667 12.8193 26.6667 14.0625C26.6667 15.3057 26.1399 16.498 25.2022 17.3771C24.2645 18.2561 22.9927 18.75 21.6667 18.75C20.3406 18.75 19.0688 18.2561 18.1311 17.3771C17.1934 16.498 16.6667 15.3057 16.6667 14.0625ZM25 18.75H18.3333C15.5833 18.75 13.3333 20.1562 13.3333 21.875V25H30V21.875C30 20.1562 27.75 18.75 25 18.75Z" fill="#D4D4D4"/>
</svg>
