<svg width="50" height="50" viewBox="0 0 139 148" fill="none" xmlns="http://www.w3.org/2000/svg">
<path d="M18.5152 62.7699H29.0624C31.9809 62.7699 34.3428 60.2551 34.3428 57.1477C34.3428 54.0402 31.9809 51.5254 29.0624 51.5254H18.5152C15.5968 51.5254 13.2349 54.0402 13.2349 57.1477C13.2349 60.2551 15.5968 62.7699 18.5152 62.7699ZM34.3292 90.8523C34.3292 87.7449 31.9673 85.2301 29.0488 85.2301H18.5017C15.5832 85.2301 13.2213 87.7449 13.2213 90.8523C13.2213 93.9598 15.5832 96.4746 18.5017 96.4746H29.0488C31.9673 96.4602 34.3292 93.9453 34.3292 90.8523Z" fill="white"/>
<path d="M118.734 14.0918H30.8135C26.9313 14.0918 23.782 17.4449 23.782 21.5785V49.6609H29.0624C32.9446 49.6609 36.0939 53.0141 36.0939 57.1477C36.0939 61.2812 32.9446 64.6344 29.0624 64.6344H23.782V83.3512H29.0624C32.9446 83.3512 36.0939 86.7043 36.0939 90.8379C36.0939 94.9715 32.9446 98.3246 29.0624 98.3246H23.782V126.407C23.782 130.541 26.9313 133.894 30.8135 133.894H118.734C122.616 133.894 125.765 130.541 125.765 126.407V21.5785C125.765 17.4449 122.616 14.0918 118.734 14.0918ZM76.4772 118.588C74.3596 118.588 56.5638 108.239 56.5638 105.436C56.5638 102.632 70.4095 52.1613 70.4095 52.1613L59.0614 37.1301C59.0614 37.1301 57.3918 33.7914 62.4007 33.7914H90.7572C95.7661 33.7914 93.2549 37.1301 93.2549 37.1301L82.5313 52.1613C82.5313 52.1613 96.377 102.935 96.377 105.436C96.3905 107.936 78.5947 118.588 76.4772 118.588ZM99.4447 81.9348L95.6575 87.7449L85.5447 53.0574L99.5805 77.8734C100.205 79.0152 100.151 80.8508 99.4447 81.9348Z" fill="white"/>
</svg>
